#!OML:ASF F:\VICON\USERDATA\INSTALL\rory3\rory3.ASF
:FULLY-SPECIFIED
:DEGREES
79
root 0.542648 17.9416 -18.2657 -0.858528 -3.91704 -7.68529
lowerback 11.0189 1.26751 7.15009
upperback -0.200251 2.74309 2.08918
thorax -6.17926 1.15296 -2.25654
lowerneck -17.724 -2.81032 -1.60023
upperneck 15.013 -3.47448 0.323152
head 7.56829 -1.71892 -0.0349074
rclavicle 2.81094e-014 1.49337e-014
rhumerus -24.3357 -6.11149 -83.133
rradius 38.4033
rwrist -6.45004
rhand -19.5679 22.0999
rfingers 7.12502
rthumb 6.75695 -7.77225
lclavicle 2.81094e-014 1.49337e-014
lhumerus -35.6468 10.9613 79.1647
lradius 22.2599
lwrist 5.71219
lhand -22.755 21.0256
lfingers 7.12502
lthumb 3.67969 50.9736
rfemur 5.2913 6.22969 35.1616
rtibia 21.7713
rfoot -18.5322 -8.49527
rtoes -0.15167
lfemur -26.988 -1.19269 -11.2062
ltibia 22.9518
lfoot 3.63692 4.60524
ltoes -6.24674
80
root 0.551358 17.9137 -18.0827 -0.707233 -4.25458 -7.64844
lowerback 10.919 1.42313 7.03283
upperback -0.101342 2.91886 2.09051
thorax -6.00704 1.25086 -2.21114
lowerneck -18.4887 -2.80488 -1.49968
upperneck 15.2947 -3.45571 0.188065
head 7.78817 -1.71408 -0.10688
rclavicle 6.32461e-015 -1.51573e-014
rhumerus -23.84 -6.12156 -83.1478
rradius 38.3899
rwrist -6.38666
rhand -19.1605 22.1116
rfingers 7.12502
rthumb 7.15026 -7.74765
lclavicle 6.32461e-015 -1.51573e-014
lhumerus -35.4806 11.1331 79.2111
lradius 21.6343
lwrist 6.07423
lhand -23.5731 16.7112
lfingers 7.12502
lthumb 2.88968 46.6714
rfemur 5.91922 6.2538 35.0521
rtibia 21.6459
rfoot -18.7727 -8.20577
rtoes -0.0838969
lfemur -26.3737 -2.3243 -10.7668
ltibia 19.5152
lfoot 5.46428 4.93184
ltoes -4.20069
81
root 0.559024 17.8773 -17.8999 -0.540478 -4.29712 -7.7584
lowerback 10.8622 1.48757 7.15259
upperback -0.213955 3.01909 2.05122
thorax -6.07841 1.2909 -2.33389
lowerneck -18.429 -2.813 -1.40005
upperneck 15.2123 -3.50067 0.222371
head 7.74962 -1.72646 -0.115401
rclavicle -7.0522e-015 1.97542e-014
rhumerus -23.8219 -6.29572 -83.1974
rradius 38.3808
rwrist -6.09637
rhand -19.0436 22.2098
rfingers 7.12502
rthumb 7.26304 -7.64557
lclavicle -7.0522e-015 1.97542e-014
lhumerus -35.6306 11.4321 78.8732
lradius 20.9894
lwrist 5.72197
lhand -23.8554 15.8401
lfingers 7.12502
lthumb 2.61702 45.8038
rfemur 6.39178 6.33575 35.1919
rtibia 21.7727
rfoot -19.0856 -8.22407
rtoes 0.45719
lfemur -25.8491 -3.80343 -10.0839
ltibia 16.0661
lfoot 5.47481 5.88545
ltoes -6.67247
82
root 0.567387 17.8461 -17.7158 -0.475193 -4.40919 -7.88601
lowerback 10.8322 1.51148 7.16493
upperback -0.390382 3.06825 2.16101
thorax -6.25119 1.30645 -2.23458
lowerneck -17.8756 -2.73051 -1.68289
upperneck 15.1731 -3.35255 0.376198
head 7.64869 -1.65959 0.00672878
rclavicle 3.06944e-014 2.91468e-014
rhumerus -24.0527 -5.9699 -83.1049
rradius 38.3699
rwrist -5.91336
rhand -19.1783 22.1386
rfingers 7.12502
rthumb 7.13302 -7.7212
lclavicle 3.06944e-014 2.91468e-014
lhumerus -36.2023 12.1177 78.4836
lradius 20.6241
lwrist 4.94642
lhand -23.778 17.3984
lfingers 7.12502
lthumb 2.69172 47.3611
rfemur 6.79313 6.33542 35.3136
rtibia 22.2226
rfoot -19.4825 -8.22774
rtoes 0.0596584
lfemur -24.8357 -5.2575 -9.35801
ltibia 12.3767
lfoot 5.25758 7.07171
ltoes -6.31873
83
root 0.582085 17.8375 -17.52 -0.284093 -4.7689 -7.8591
lowerback 10.4229 1.59467 7.06968
upperback -0.409156 3.13465 2.24856
thorax -6.04339 1.35098 -2.08342
lowerneck -17.6649 -2.6565 -1.91199
upperneck 15.0872 -3.19886 0.393178
head 7.58695 -1.59905 0.0708469
rclavicle 3.02215e-015 -8.53532e-015
rhumerus -23.9392 -5.53449 -83.0895
rradius 38.2408
rwrist -5.89186
rhand -19.3589 22.1338
rfingers 7.12502
rthumb 6.95867 -7.7318
lclavicle 3.02215e-015 -8.53532e-015
lhumerus -36.6235 12.6062 78.363
lradius 20.524
lwrist 4.5073
lhand -23.7711 18.4352
lfingers 7.12502
lthumb 2.69841 48.3979
rfemur 7.05232 6.31903 35.1259
rtibia 22.5875
rfoot -19.6876 -7.80014
rtoes -0.650907
lfemur -23.7156 -4.63335 -9.64454
ltibia 9.1664
lfoot 3.65196 6.62884
ltoes -6.67977
84
root 0.596543 17.8336 -17.3278 -0.106043 -4.85486 -7.76137
lowerback 9.94682 1.62344 7.011
upperback -0.29771 3.11067 2.20011
thorax -5.65745 1.35668 -2.07706
lowerneck -17.5607 -2.65804 -1.75596
upperneck 14.7166 -3.21152 0.236532
head 7.44141 -1.61177 -0.00305699
rclavicle 1.99631e-014 3.62782e-015
rhumerus -23.5919 -5.45302 -83.2012
rradius 38.0545
rwrist -5.69921
rhand -19.6536 21.9955
rfingers 7.12502
rthumb 6.67425 -7.87928
lclavicle 1.99631e-014 3.62782e-015
lhumerus -36.6392 12.8115 78.2343
lradius 20.413
lwrist 4.0862
lhand -23.3167 19.7432
lfingers 7.12502
lthumb 3.13729 49.6998
rfemur 7.1988 6.28289 34.9449
rtibia 22.8867
rfoot -19.7285 -7.52201
rtoes -1.31522
lfemur -22.9829 -4.23742 -9.9174
ltibia 6.88534
lfoot 0.885372 6.42365
ltoes -7.384
85
root 0.607932 17.8336 -17.1474 -0.0510888 -4.6468 -7.79662
lowerback 10.1172 1.60936 7.15572
upperback -0.424185 3.12754 2.10146
thorax -5.87399 1.34873 -2.27259
lowerneck -17.5366 -2.72203 -1.64804
upperneck 14.755 -3.33689 0.288955
head 7.45008 -1.66043 -0.017688
rclavicle 1.46029e-014 7.46685e-015
rhumerus -23.8515 -5.78738 -83.228
rradius 38.1203
rwrist -5.51121
rhand -19.8208 21.8741
rfingers 7.12502
rthumb 6.51279 -8.00573
lclavicle 1.46029e-014 7.46685e-015
lhumerus -36.8313 12.9394 77.9046
lradius 20.1179
lwrist 3.47609
lhand -22.954 20.9535
lfingers 7.12502
lthumb 3.48755 50.9048
rfemur 7.55076 6.2347 34.9782
rtibia 23.1409
rfoot -19.7046 -7.49507
rtoes -2.37444
lfemur -22.3752 -4.13383 -10.0124
ltibia 5.72773
lfoot -2.55471 6.24822
ltoes -6.46861
86
root 0.624104 17.8087 -16.9644 0.0272853 -4.43413 -7.70567
lowerback 10.7868 1.55044 7.11311
upperback -0.931072 3.13432 2.00435
thorax -6.79185 1.30712 -2.38913
lowerneck -17.4767 -2.69172 -1.49232
upperneck 15.191 -3.32705 0.216755
head 7.57945 -1.65359 -0.0683201
rclavicle 5.98373e-015 -1.56543e-015
rhumerus -24.6808 -6.02258 -83.137
rradius 38.1276
rwrist -5.16879
rhand -19.6701 22.0232
rfingers 7.12502
rthumb 6.65832 -7.85211
lclavicle 5.98373e-015 -1.56543e-015
lhumerus -37.5838 13.1869 77.3591
lradius 19.6997
lwrist 3.01108
lhand -23.1138 20.6739
lfingers 7.12502
lthumb 3.33316 50.6276
rfemur 8.08503 6.25517 34.8484
rtibia 23.3427
rfoot -19.6862 -7.50018
rtoes -3.67166
lfemur -22.8224 -4.06953 -10.317
ltibia 6.56755
lfoot -4.14311 5.68592
ltoes -9.40961
87
root 0.636591 17.7845 -16.7759 0.0265521 -4.19491 -7.58355
lowerback 10.1211 1.53169 7.04465
upperback -0.590354 3.01301 1.94945
thorax -6.05999 1.28374 -2.35784
lowerneck -17.5479 -2.71318 -1.44891
upperneck 14.8468 -3.36392 0.220752
head 7.47758 -1.66839 -0.0762846
rclavicle -8.45767e-015 -5.1684e-015
rhumerus -24.1287 -6.34775 -83.1508
rradius 37.7563
rwrist -4.9526
rhand -19.3507 22.1071
rfingers 7.12502
rthumb 6.96664 -7.75827
lclavicle -8.45767e-015 -5.1684e-015
lhumerus -37.0737 13.782 77.158
lradius 19.1162
lwrist 2.55799
lhand -23.2623 19.8625
lfingers 7.12502
lthumb 3.18977 49.8184
rfemur 8.79145 6.25045 34.6877
rtibia 23.3827
rfoot -19.5518 -7.21364
rtoes -4.41514
lfemur -24.0695 -4.05381 -10.6579
ltibia 9.28499
lfoot -4.7211 4.69386
ltoes -9.76787
